Jump_normalized_Motion_pl12
version=1
nRows=14
nColumns=43
inDegrees=yes
endheader
time		pelvis_tilt		pelvis_list		pelvis_rotation		pelvis_tx		pelvis_ty		pelvis_tz		hip_flexion_r		hip_adduction_r		hip_rotation_r		knee_angle_r		ankle_angle_r		subtalar_angle_r		mtp_angle_r		hip_flexion_l		hip_adduction_l		hip_rotation_l		knee_angle_l		ankle_angle_l		subtalar_angle_l		mtp_angle_l		lumbar_extension		lumbar_bending		lumbar_rotation		neck_flexion		neck_lateral_bending		neck_rotation		arm_flex_r		arm_add_r		arm_rot_r		elbow_flex_r		pro_sup_r		wrist_flex_r		wrist_dev_r		hand_finger_flex_r		arm_flex_l		arm_add_l		arm_rot_l		elbow_flex_l		pro_sup_l		wrist_flex_l		wrist_dev_l		hand_finger_flex_l		
0.439167		2.645964		-24.551178		88.471026		0.035275		1.845058		1.706506		66.320029		2.057361		-0.921456		-120.072160		23.604194		3.810276		25.784517		69.127376		-9.947509		-1.344705		-124.108958		13.515213		4.193242		24.899524		-35.665176		1.379150		2.824244		31.544233		-2.555957		4.389776		105.130877		-16.954821		20.276371		75.379602		105.480202		-5.111173		3.166571		20.778746		109.585154		-21.960777		27.233570		76.750469		88.693832		-6.225889		-0.447387		25.782528		
0.442980		2.510116		-24.399505		88.422310		0.035039		1.848423		1.699605		65.265628		1.964147		-0.678005		-119.429978		23.118503		3.711224		25.714136		68.255781		-9.919503		-1.501786		-123.539692		12.259448		4.297457		24.960107		-35.466323		1.295683		2.672938		31.034299		-2.521528		4.443443		105.751317		-16.893980		20.600175		75.265489		105.256020		-5.128364		3.251096		20.405877		110.271740		-21.834722		27.500785		76.514440		88.681139		-6.210494		-0.615722		25.833801		
0.446793		2.333057		-24.295446		88.327241		0.034829		1.851698		1.692618		64.278056		1.875417		-0.387170		-118.805509		22.726636		3.527419		25.652603		67.408138		-9.893965		-1.745925		-122.931404		11.290881		4.364214		25.035128		-35.219588		1.154230		2.508189		30.678131		-2.437594		4.481471		106.245421		-16.742433		20.736336		75.198122		105.091648		-5.128509		3.273354		20.006958		110.901568		-21.709646		27.744776		76.314930		88.586988		-6.290664		-0.808900		25.883598		
0.450606		2.187254		-24.233964		88.260773		0.034528		1.854652		1.685592		63.389902		1.784245		-0.095904		-118.232425		22.145957		3.490590		25.563247		66.677354		-9.860930		-1.926089		-122.374981		10.415599		4.470772		25.099327		-34.839994		1.069153		2.368862		29.849628		-2.410658		4.569995		106.684423		-16.609262		20.924619		75.056668		105.002918		-5.029431		3.337909		19.708217		111.443161		-21.594163		28.052335		76.056850		88.522726		-6.348164		-0.869145		25.946188		
0.454419		2.040296		-24.190537		88.193937		0.034365		1.857601		1.678559		62.543671		1.707982		0.165928		-117.648932		21.574338		3.451716		25.436307		66.004033		-9.826844		-2.097958		-121.810192		9.285724		4.618638		25.137827		-34.456989		0.967004		2.203053		29.124848		-2.370938		4.655541		107.099606		-16.401893		21.020434		74.866865		104.933877		-4.911241		3.371632		19.496579		111.944358		-21.483613		28.283296		75.798509		88.446168		-6.418750		-0.900189		26.016623		
0.458232		1.890864		-24.128846		88.109056		0.034217		1.860516		1.671463		61.698068		1.655333		0.410315		-117.063435		20.983227		3.450344		25.251953		65.360334		-9.804749		-2.276368		-121.250214		8.068094		4.609979		25.171709		-34.099969		0.852029		2.028817		28.463767		-2.321054		4.754668		107.513247		-16.194367		21.108413		74.666460		104.826024		-4.782223		3.369703		19.290905		112.451777		-21.390728		28.529451		75.533456		88.357526		-6.491959		-0.939612		26.105630		
0.462045		1.741444		-24.064472		88.012419		0.034182		1.863381		1.664302		60.881753		1.624520		0.643450		-116.486708		20.320521		3.511696		24.994199		64.768815		-9.796323		-2.450355		-120.690929		6.698117		4.470782		25.201668		-33.738998		0.722492		1.865502		27.783059		-2.275225		4.861316		107.920720		-16.014468		21.236344		74.460657		104.670046		-4.657928		3.345784		19.072588		112.943553		-21.312516		28.786607		75.251003		88.268856		-6.574206		-0.979645		26.199109		
0.465859		1.596842		-24.024464		87.903715		0.034234		1.866177		1.657148		60.110233		1.613570		0.872010		-115.922044		19.595436		3.600462		24.666035		64.244021		-9.807389		-2.625420		-120.131279		5.218319		4.202739		25.232115		-33.361496		0.581623		1.722887		27.107139		-2.232948		4.957571		108.303871		-15.871791		21.409519		74.281744		104.476915		-4.568146		3.313721		18.820259		113.409862		-21.236600		29.049073		74.960428		88.187671		-6.675372		-1.024444		26.277956		
0.469672		1.465734		-23.989191		87.784339		0.034314		1.868869		1.649937		59.377132		1.611516		1.101970		-115.377507		18.778127		3.676453		24.307535		63.774906		-9.841467		-2.789741		-119.575785		3.654909		3.879560		25.258721		-32.965082		0.437814		1.594974		26.399283		-2.194155		5.040275		108.644515		-15.744673		21.595954		74.125419		104.301339		-4.522515		3.308588		18.563525		113.840393		-21.156512		29.309278		74.653244		88.128975		-6.786532		-1.058886		26.320254		
0.473485		1.324895		-23.932162		87.660347		0.034412		1.871522		1.642661		58.650537		1.609004		1.347226		-114.840683		17.854390		3.674822		23.922882		63.319918		-9.894258		-2.974170		-119.005652		1.957524		3.457887		25.285188		-32.589052		0.282811		1.468423		25.666238		-2.149336		5.118769		108.919052		-15.584705		21.729688		73.993681		104.182906		-4.509322		3.340717		18.310885		114.253776		-21.083521		29.587441		74.330940		88.078424		-6.913356		-1.093168		26.319246		
0.477298		1.193232		-23.854559		87.541275		0.034476		1.874117		1.635332		57.930823		1.600710		1.596693		-114.328120		16.828734		3.604212		23.557265		62.882542		-9.961642		-3.154168		-118.425618		0.236829		3.022521		25.305305		-32.227164		0.136254		1.329442		24.903335		-2.105593		5.201624		109.113458		-15.358879		21.772805		73.869424		104.178768		-4.492006		3.417956		18.122522		114.639122		-21.019617		29.866832		73.997350		88.038830		-7.034990		-1.107692		26.277026		
0.481111		0.988484		-23.717925		87.371285		0.034532		1.876836		1.627952		57.190091		1.584720		1.899188		-113.824869		15.820540		3.237865		23.060944		62.387288		-10.013501		-3.476732		-117.764197		-1.850243		2.103107		25.363806		-31.969847		-0.095857		1.144154		24.328496		-1.996758		5.312448		109.249600		-15.022607		21.603752		73.782603		104.407574		-4.387328		3.502481		17.934155		115.084261		-21.018174		30.239210		73.689445		87.909113		-7.230084		-1.193798		26.154967		
0.484924		0.833936		-23.562980		87.241581		0.034570		1.879461		1.620521		56.474596		1.597529		2.160251		-113.329502		14.628974		2.881184		22.600626		61.917009		-10.086003		-3.714292		-117.114635		-3.896266		1.520131		25.414270		-31.715725		-0.271278		0.960100		23.630684		-1.916673		5.434230		109.325487		-14.608329		21.317885		73.666237		104.879113		-4.176097		3.589082		17.926857		115.460899		-21.002557		30.548082		73.376338		87.808890		-7.358104		-1.194826		26.010868		
0.488737		0.727154		-23.416828		87.192158		0.034496		1.881881		1.613118		55.827091		1.616918		2.390475		-112.856702		13.277604		2.730868		22.106430		61.497810		-10.140916		-3.895983		-116.517885		-5.369252		1.052965		25.499654		-31.438347		-0.368728		0.774376		22.823890		-1.882490		5.539699		109.416407		-14.250783		21.110721		73.512077		105.463788		-3.861271		3.632896		17.999426		115.813154		-20.951680		30.838865		72.987049		87.730916		-7.441876		-1.128604		25.863785		
